<?xml version="1.0" standalone="no"?>
<!DOCTYPE svg PUBLIC "-//W3C//DTD SVG 20010904//EN"
 "http://www.w3.org/TR/2001/REC-SVG-20010904/DTD/svg10.dtd">
<svg version="1.0" xmlns="http://www.w3.org/2000/svg"
 width="1024.000000pt" height="1024.000000pt" viewBox="0 0 1024.000000 1024.000000"
 preserveAspectRatio="xMidYMid meet">
<metadata>
Created by potrace 1.15, written by Peter Selinger 2001-2017
</metadata>
<g transform="translate(0.000000,1024.000000) scale(0.100000,-0.100000)"
fill="#000000" stroke="none">
<path d="M4810 9934 c-127 -9 -293 -25 -407 -41 -107 -15 -122 -19 -127 -37
-8 -29 -8 -5360 0 -5380 6 -15 234 -16 2493 -16 1367 0 2624 3 2792 7 l306 6
12 121 c57 575 20 1153 -109 1681 -262 1077 -898 2037 -1795 2710 -701 526
-1489 833 -2385 930 -137 15 -654 28 -780 19z"/>
<path d="M1849 8676 c-375 -344 -718 -784 -969 -1241 -329 -599 -516 -1232
-571 -1928 -19 -248 1 -1008 28 -1037 3 -3 380 -6 839 -8 l834 -3 -1 2083 c-1
1146 -4 2125 -8 2175 l-6 93 -146 -134z"/>
<path d="M5060 3541 l-785 -6 -2 -1555 c-2 -855 1 -1561 5 -1568 9 -13 184
-41 377 -62 55 -6 204 -13 330 -17 828 -22 1663 177 2390 569 437 235 796 508
1160 879 370 378 636 752 874 1230 87 174 221 488 221 518 0 8 -169 11 -627
11 -346 0 -1197 2 -1893 3 -696 2 -1618 1 -2050 -2z"/>
<path d="M580 3536 c0 -14 78 -223 125 -335 214 -508 524 -972 930 -1389 129
-133 355 -342 369 -342 3 0 6 466 6 1035 l0 1035 -715 0 c-393 0 -715 -2 -715
-4z"/>
</g>
</svg>
